<?xml version="1.0" encoding="us-ascii" standalone="no"?><svg xmlns="http://www.w3.org/2000/svg" xmlns:xlink="http://www.w3.org/1999/xlink" contentStyleType="text/css" height="1258px" preserveAspectRatio="none" style="width:1044px;height:1258px;background:#FFFFFF;" version="1.1" viewBox="0 0 1044 1258" width="1044px" zoomAndPan="magnify"><defs/><g><!--class Nutzer--><g id="elem_Nutzer"><rect codeLine="4" fill="#F1F1F1" height="173.4754" id="Nutzer" rx="2.5" ry="2.5" style="stroke:#181818;stroke-width:0.5;" width="126" x="334" y="688"/><ellipse cx="370.6" cy="704" fill="#ADD1B2" rx="11" ry="11" style="stroke:#181818;stroke-width:1.0;"/><path d="M373.5688,709.6406 Q372.9906,709.9375 372.35,710.0781 Q371.7094,710.2344 371.0063,710.2344 Q368.5063,710.2344 367.1781,708.5938 Q365.8656,706.9375 365.8656,703.8125 Q365.8656,700.6875 367.1781,699.0313 Q368.5063,697.375 371.0063,697.375 Q371.7094,697.375 372.35,697.5313 Q373.0063,697.6875 373.5688,697.9844 L373.5688,700.7031 Q372.9438,700.125 372.35,699.8594 Q371.7563,699.5781 371.1313,699.5781 Q369.7875,699.5781 369.1,700.6563 Q368.4125,701.7188 368.4125,703.8125 Q368.4125,705.9063 369.1,706.9844 Q369.7875,708.0469 371.1313,708.0469 Q371.7563,708.0469 372.35,707.7813 Q372.9438,707.5 373.5688,706.9219 L373.5688,709.6406 Z " fill="#000000"/><text fill="#000000" font-family="sans-serif" font-size="14" lengthAdjust="spacing" textLength="46" x="389.4" y="709.432">Nutzer</text><line style="stroke:#181818;stroke-width:0.5;" x1="335" x2="459" y1="720" y2="720"/><ellipse cx="345" cy="735.034" fill="none" rx="3" ry="3" style="stroke:#038048;stroke-width:1.0;"/><text fill="#000000" font-family="sans-serif" font-size="14" lengthAdjust="spacing" textLength="13" x="354" y="738.9659">id</text><ellipse cx="345" cy="754.1019" fill="none" rx="3" ry="3" style="stroke:#038048;stroke-width:1.0;"/><text fill="#000000" font-family="sans-serif" font-size="14" lengthAdjust="spacing" textLength="37" x="354" y="758.0339">email</text><ellipse cx="345" cy="773.1698" fill="none" rx="3" ry="3" style="stroke:#038048;stroke-width:1.0;"/><text fill="#000000" font-family="sans-serif" font-size="14" lengthAdjust="spacing" textLength="38" x="354" y="777.1018">name</text><ellipse cx="345" cy="792.2377" fill="none" rx="3" ry="3" style="stroke:#038048;stroke-width:1.0;"/><text fill="#000000" font-family="sans-serif" font-size="14" lengthAdjust="spacing" textLength="100" x="354" y="796.1697">passwort_hash</text><ellipse cx="345" cy="811.3056" fill="none" rx="3" ry="3" style="stroke:#038048;stroke-width:1.0;"/><text fill="#000000" font-family="sans-serif" font-size="14" lengthAdjust="spacing" textLength="43" x="354" y="815.2376">theme</text><ellipse cx="345" cy="830.3735" fill="none" rx="3" ry="3" style="stroke:#038048;stroke-width:1.0;"/><text fill="#000000" font-family="sans-serif" font-size="14" lengthAdjust="spacing" textLength="33" x="354" y="834.3055">color</text><ellipse cx="345" cy="849.4415" fill="none" rx="3" ry="3" style="stroke:#038048;stroke-width:1.0;"/><text fill="#000000" font-family="sans-serif" font-size="14" lengthAdjust="spacing" textLength="72" x="354" y="853.3734">DecayDays</text></g><!--class Listen--><g id="elem_Listen"><rect codeLine="14" fill="#F1F1F1" height="116.2717" id="Listen" rx="2.5" ry="2.5" style="stroke:#181818;stroke-width:0.5;" width="82" x="214" y="7"/><ellipse cx="233.5" cy="23" fill="#ADD1B2" rx="11" ry="11" style="stroke:#181818;stroke-width:1.0;"/><path d="M236.4688,28.6406 Q235.8906,28.9375 235.25,29.0781 Q234.6094,29.2344 233.9063,29.2344 Q231.4063,29.2344 230.0781,27.5938 Q228.7656,25.9375 228.7656,22.8125 Q228.7656,19.6875 230.0781,18.0313 Q231.4063,16.375 233.9063,16.375 Q234.6094,16.375 235.25,16.5313 Q235.9063,16.6875 236.4688,16.9844 L236.4688,19.7031 Q235.8438,19.125 235.25,18.8594 Q234.6563,18.5781 234.0313,18.5781 Q232.6875,18.5781 232,19.6563 Q231.3125,20.7188 231.3125,22.8125 Q231.3125,24.9063 232,25.9844 Q232.6875,27.0469 234.0313,27.0469 Q234.6563,27.0469 235.25,26.7813 Q235.8438,26.5 236.4688,25.9219 L236.4688,28.6406 Z " fill="#000000"/><text fill="#000000" font-family="sans-serif" font-size="14" lengthAdjust="spacing" textLength="40" x="248.5" y="28.432">Listen</text><line style="stroke:#181818;stroke-width:0.5;" x1="215" x2="295" y1="39" y2="39"/><ellipse cx="225" cy="54.034" fill="none" rx="3" ry="3" style="stroke:#038048;stroke-width:1.0;"/><text fill="#000000" font-family="sans-serif" font-size="14" lengthAdjust="spacing" textLength="13" x="234" y="57.9659">id</text><ellipse cx="225" cy="73.1019" fill="none" rx="3" ry="3" style="stroke:#038048;stroke-width:1.0;"/><text fill="#000000" font-family="sans-serif" font-size="14" lengthAdjust="spacing" textLength="38" x="234" y="77.0339">name</text><ellipse cx="225" cy="92.1698" fill="none" rx="3" ry="3" style="stroke:#038048;stroke-width:1.0;"/><text fill="#000000" font-family="sans-serif" font-size="14" lengthAdjust="spacing" textLength="56" x="234" y="96.1018">ersteller</text><ellipse cx="225" cy="111.2377" fill="none" rx="3" ry="3" style="stroke:#038048;stroke-width:1.0;"/><text fill="#000000" font-family="sans-serif" font-size="14" lengthAdjust="spacing" textLength="44" x="234" y="115.1697">datum</text></g><!--class ListeMitglieder--><g id="elem_ListeMitglieder"><rect codeLine="21" fill="#F1F1F1" height="97.2038" id="ListeMitglieder" rx="2.5" ry="2.5" style="stroke:#181818;stroke-width:0.5;" width="133" x="13.5" y="959"/><ellipse cx="28.5" cy="975" fill="#ADD1B2" rx="11" ry="11" style="stroke:#181818;stroke-width:1.0;"/><path d="M31.4688,980.6406 Q30.8906,980.9375 30.25,981.0781 Q29.6094,981.2344 28.9063,981.2344 Q26.4063,981.2344 25.0781,979.5938 Q23.7656,977.9375 23.7656,974.8125 Q23.7656,971.6875 25.0781,970.0313 Q26.4063,968.375 28.9063,968.375 Q29.6094,968.375 30.25,968.5313 Q30.9063,968.6875 31.4688,968.9844 L31.4688,971.7031 Q30.8438,971.125 30.25,970.8594 Q29.6563,970.5781 29.0313,970.5781 Q27.6875,970.5781 27,971.6563 Q26.3125,972.7188 26.3125,974.8125 Q26.3125,976.9063 27,977.9844 Q27.6875,979.0469 29.0313,979.0469 Q29.6563,979.0469 30.25,978.7813 Q30.8438,978.5 31.4688,977.9219 L31.4688,980.6406 Z " fill="#000000"/><text fill="#000000" font-family="sans-serif" font-size="14" lengthAdjust="spacing" textLength="101" x="42.5" y="980.432">ListeMitglieder</text><line style="stroke:#181818;stroke-width:0.5;" x1="14.5" x2="145.5" y1="991" y2="991"/><ellipse cx="24.5" cy="1006.034" fill="none" rx="3" ry="3" style="stroke:#038048;stroke-width:1.0;"/><text fill="#000000" font-family="sans-serif" font-size="14" lengthAdjust="spacing" textLength="56" x="33.5" y="1009.9659">listen_id</text><ellipse cx="24.5" cy="1025.1019" fill="none" rx="3" ry="3" style="stroke:#038048;stroke-width:1.0;"/><text fill="#000000" font-family="sans-serif" font-size="14" lengthAdjust="spacing" textLength="63" x="33.5" y="1029.0339">nutzer_id</text><ellipse cx="24.5" cy="1044.1698" fill="none" rx="3" ry="3" style="stroke:#038048;stroke-width:1.0;"/><text fill="#000000" font-family="sans-serif" font-size="14" lengthAdjust="spacing" textLength="106" x="33.5" y="1048.1018">beigetreten_am</text></g><!--class Produkt--><g id="elem_Produkt"><rect codeLine="27" fill="#F1F1F1" height="78.1358" id="Produkt" rx="2.5" ry="2.5" style="stroke:#181818;stroke-width:0.5;" width="84" x="771" y="735.5"/><ellipse cx="786" cy="751.5" fill="#ADD1B2" rx="11" ry="11" style="stroke:#181818;stroke-width:1.0;"/><path d="M788.9688,757.1406 Q788.3906,757.4375 787.75,757.5781 Q787.1094,757.7344 786.4063,757.7344 Q783.9063,757.7344 782.5781,756.0938 Q781.2656,754.4375 781.2656,751.3125 Q781.2656,748.1875 782.5781,746.5313 Q783.9063,744.875 786.4063,744.875 Q787.1094,744.875 787.75,745.0313 Q788.4063,745.1875 788.9688,745.4844 L788.9688,748.2031 Q788.3438,747.625 787.75,747.3594 Q787.1563,747.0781 786.5313,747.0781 Q785.1875,747.0781 784.5,748.1563 Q783.8125,749.2188 783.8125,751.3125 Q783.8125,753.4063 784.5,754.4844 Q785.1875,755.5469 786.5313,755.5469 Q787.1563,755.5469 787.75,755.2813 Q788.3438,755 788.9688,754.4219 L788.9688,757.1406 Z " fill="#000000"/><text fill="#000000" font-family="sans-serif" font-size="14" lengthAdjust="spacing" textLength="52" x="800" y="756.932">Produkt</text><line style="stroke:#181818;stroke-width:0.5;" x1="772" x2="854" y1="767.5" y2="767.5"/><ellipse cx="782" cy="782.534" fill="none" rx="3" ry="3" style="stroke:#038048;stroke-width:1.0;"/><text fill="#000000" font-family="sans-serif" font-size="14" lengthAdjust="spacing" textLength="13" x="791" y="786.4659">id</text><ellipse cx="782" cy="801.6019" fill="none" rx="3" ry="3" style="stroke:#038048;stroke-width:1.0;"/><text fill="#000000" font-family="sans-serif" font-size="14" lengthAdjust="spacing" textLength="38" x="791" y="805.5339">name</text></g><!--class Einheiten--><g id="elem_Einheiten"><rect codeLine="32" fill="#F1F1F1" height="97.2038" id="Einheiten" rx="2.5" ry="2.5" style="stroke:#181818;stroke-width:0.5;" width="99" x="851.5" y="1154"/><ellipse cx="867.85" cy="1170" fill="#ADD1B2" rx="11" ry="11" style="stroke:#181818;stroke-width:1.0;"/><path d="M870.8188,1175.6406 Q870.2406,1175.9375 869.6,1176.0781 Q868.9594,1176.2344 868.2563,1176.2344 Q865.7563,1176.2344 864.4281,1174.5938 Q863.1156,1172.9375 863.1156,1169.8125 Q863.1156,1166.6875 864.4281,1165.0313 Q865.7563,1163.375 868.2563,1163.375 Q868.9594,1163.375 869.6,1163.5313 Q870.2563,1163.6875 870.8188,1163.9844 L870.8188,1166.7031 Q870.1938,1166.125 869.6,1165.8594 Q869.0063,1165.5781 868.3813,1165.5781 Q867.0375,1165.5781 866.35,1166.6563 Q865.6625,1167.7188 865.6625,1169.8125 Q865.6625,1171.9063 866.35,1172.9844 Q867.0375,1174.0469 868.3813,1174.0469 Q869.0063,1174.0469 869.6,1173.7813 Q870.1938,1173.5 870.8188,1172.9219 L870.8188,1175.6406 Z " fill="#000000"/><text fill="#000000" font-family="sans-serif" font-size="14" lengthAdjust="spacing" textLength="64" x="882.15" y="1175.432">Einheiten</text><line style="stroke:#181818;stroke-width:0.5;" x1="852.5" x2="949.5" y1="1186" y2="1186"/><ellipse cx="862.5" cy="1201.034" fill="none" rx="3" ry="3" style="stroke:#038048;stroke-width:1.0;"/><text fill="#000000" font-family="sans-serif" font-size="14" lengthAdjust="spacing" textLength="13" x="871.5" y="1204.9659">id</text><ellipse cx="862.5" cy="1220.1019" fill="none" rx="3" ry="3" style="stroke:#038048;stroke-width:1.0;"/><text fill="#000000" font-family="sans-serif" font-size="14" lengthAdjust="spacing" textLength="38" x="871.5" y="1224.0339">name</text><ellipse cx="862.5" cy="1239.1698" fill="none" rx="3" ry="3" style="stroke:#038048;stroke-width:1.0;"/><text fill="#000000" font-family="sans-serif" font-size="14" lengthAdjust="spacing" textLength="73" x="871.5" y="1243.1018">abk&#252;rzung</text></g><!--class ListeProdukte--><g id="elem_ListeProdukte"><rect codeLine="38" fill="#F1F1F1" height="154.4075" id="ListeProdukte" rx="2.5" ry="2.5" style="stroke:#181818;stroke-width:0.5;" width="139" x="788.5" y="435.5"/><ellipse cx="810.7" cy="451.5" fill="#ADD1B2" rx="11" ry="11" style="stroke:#181818;stroke-width:1.0;"/><path d="M813.6688,457.1406 Q813.0906,457.4375 812.45,457.5781 Q811.8094,457.7344 811.1063,457.7344 Q808.6063,457.7344 807.2781,456.0938 Q805.9656,454.4375 805.9656,451.3125 Q805.9656,448.1875 807.2781,446.5313 Q808.6063,444.875 811.1063,444.875 Q811.8094,444.875 812.45,445.0313 Q813.1063,445.1875 813.6688,445.4844 L813.6688,448.2031 Q813.0438,447.625 812.45,447.3594 Q811.8563,447.0781 811.2313,447.0781 Q809.8875,447.0781 809.2,448.1563 Q808.5125,449.2188 808.5125,451.3125 Q808.5125,453.4063 809.2,454.4844 Q809.8875,455.5469 811.2313,455.5469 Q811.8563,455.5469 812.45,455.2813 Q813.0438,455 813.6688,454.4219 L813.6688,457.1406 Z " fill="#000000"/><text fill="#000000" font-family="sans-serif" font-size="14" lengthAdjust="spacing" textLength="91" x="826.3" y="456.932">ListeProdukte</text><line style="stroke:#181818;stroke-width:0.5;" x1="789.5" x2="926.5" y1="467.5" y2="467.5"/><ellipse cx="799.5" cy="482.534" fill="none" rx="3" ry="3" style="stroke:#038048;stroke-width:1.0;"/><text fill="#000000" font-family="sans-serif" font-size="14" lengthAdjust="spacing" textLength="56" x="808.5" y="486.4659">listen_id</text><ellipse cx="799.5" cy="501.6019" fill="none" rx="3" ry="3" style="stroke:#038048;stroke-width:1.0;"/><text fill="#000000" font-family="sans-serif" font-size="14" lengthAdjust="spacing" textLength="72" x="808.5" y="505.5339">produkt_id</text><ellipse cx="799.5" cy="520.6698" fill="none" rx="3" ry="3" style="stroke:#038048;stroke-width:1.0;"/><text fill="#000000" font-family="sans-serif" font-size="14" lengthAdjust="spacing" textLength="106" x="808.5" y="524.6018">produkt_menge</text><ellipse cx="799.5" cy="539.7377" fill="none" rx="3" ry="3" style="stroke:#038048;stroke-width:1.0;"/><text fill="#000000" font-family="sans-serif" font-size="14" lengthAdjust="spacing" textLength="66" x="808.5" y="543.6697">einheit_id</text><ellipse cx="799.5" cy="558.8056" fill="none" rx="3" ry="3" style="stroke:#038048;stroke-width:1.0;"/><text fill="#000000" font-family="sans-serif" font-size="14" lengthAdjust="spacing" textLength="113" x="808.5" y="562.7376">hinzugef&#252;gt_von</text><ellipse cx="799.5" cy="577.8735" fill="none" rx="3" ry="3" style="stroke:#038048;stroke-width:1.0;"/><text fill="#000000" font-family="sans-serif" font-size="14" lengthAdjust="spacing" textLength="94" x="808.5" y="581.8055">beschreibung</text></g><!--class Einkaufsarchiv--><g id="elem_Einkaufsarchiv"><rect codeLine="47" fill="#F1F1F1" height="135.3396" id="Einkaufsarchiv" rx="2.5" ry="2.5" style="stroke:#181818;stroke-width:0.5;" width="130" x="336" y="202"/><ellipse cx="351" cy="218" fill="#ADD1B2" rx="11" ry="11" style="stroke:#181818;stroke-width:1.0;"/><path d="M353.9688,223.6406 Q353.3906,223.9375 352.75,224.0781 Q352.1094,224.2344 351.4063,224.2344 Q348.9063,224.2344 347.5781,222.5938 Q346.2656,220.9375 346.2656,217.8125 Q346.2656,214.6875 347.5781,213.0313 Q348.9063,211.375 351.4063,211.375 Q352.1094,211.375 352.75,211.5313 Q353.4063,211.6875 353.9688,211.9844 L353.9688,214.7031 Q353.3438,214.125 352.75,213.8594 Q352.1563,213.5781 351.5313,213.5781 Q350.1875,213.5781 349.5,214.6563 Q348.8125,215.7188 348.8125,217.8125 Q348.8125,219.9063 349.5,220.9844 Q350.1875,222.0469 351.5313,222.0469 Q352.1563,222.0469 352.75,221.7813 Q353.3438,221.5 353.9688,220.9219 L353.9688,223.6406 Z " fill="#000000"/><text fill="#000000" font-family="sans-serif" font-size="14" lengthAdjust="spacing" textLength="98" x="365" y="223.432">Einkaufsarchiv</text><line style="stroke:#181818;stroke-width:0.5;" x1="337" x2="465" y1="234" y2="234"/><ellipse cx="347" cy="249.034" fill="none" rx="3" ry="3" style="stroke:#038048;stroke-width:1.0;"/><text fill="#000000" font-family="sans-serif" font-size="14" lengthAdjust="spacing" textLength="69" x="356" y="252.9659">einkauf_id</text><ellipse cx="347" cy="268.1019" fill="none" rx="3" ry="3" style="stroke:#038048;stroke-width:1.0;"/><text fill="#000000" font-family="sans-serif" font-size="14" lengthAdjust="spacing" textLength="56" x="356" y="272.0339">listen_id</text><ellipse cx="347" cy="287.1698" fill="none" rx="3" ry="3" style="stroke:#038048;stroke-width:1.0;"/><text fill="#000000" font-family="sans-serif" font-size="14" lengthAdjust="spacing" textLength="102" x="356" y="291.1018">eingekauft_von</text><ellipse cx="347" cy="306.2377" fill="none" rx="3" ry="3" style="stroke:#038048;stroke-width:1.0;"/><text fill="#000000" font-family="sans-serif" font-size="14" lengthAdjust="spacing" textLength="99" x="356" y="310.1697">eingekauft_am</text><ellipse cx="347" cy="325.3056" fill="none" rx="3" ry="3" style="stroke:#038048;stroke-width:1.0;"/><text fill="#000000" font-family="sans-serif" font-size="14" lengthAdjust="spacing" textLength="84" x="356" y="329.2376">gesamtpreis</text></g><!--class eingekaufte_Produkte--><g id="elem_eingekaufte_Produkte"><rect codeLine="55" fill="#F1F1F1" height="192.5433" id="eingekaufte_Produkte" rx="2.5" ry="2.5" style="stroke:#181818;stroke-width:0.5;" width="178" x="531" y="416"/><ellipse cx="546" cy="432" fill="#ADD1B2" rx="11" ry="11" style="stroke:#181818;stroke-width:1.0;"/><path d="M548.9688,437.6406 Q548.3906,437.9375 547.75,438.0781 Q547.1094,438.2344 546.4063,438.2344 Q543.9063,438.2344 542.5781,436.5938 Q541.2656,434.9375 541.2656,431.8125 Q541.2656,428.6875 542.5781,427.0313 Q543.9063,425.375 546.4063,425.375 Q547.1094,425.375 547.75,425.5313 Q548.4063,425.6875 548.9688,425.9844 L548.9688,428.7031 Q548.3438,428.125 547.75,427.8594 Q547.1563,427.5781 546.5313,427.5781 Q545.1875,427.5781 544.5,428.6563 Q543.8125,429.7188 543.8125,431.8125 Q543.8125,433.9063 544.5,434.9844 Q545.1875,436.0469 546.5313,436.0469 Q547.1563,436.0469 547.75,435.7813 Q548.3438,435.5 548.9688,434.9219 L548.9688,437.6406 Z " fill="#000000"/><text fill="#000000" font-family="sans-serif" font-size="14" lengthAdjust="spacing" textLength="146" x="560" y="437.432">eingekaufte_Produkte</text><line style="stroke:#181818;stroke-width:0.5;" x1="532" x2="708" y1="448" y2="448"/><ellipse cx="542" cy="463.034" fill="none" rx="3" ry="3" style="stroke:#038048;stroke-width:1.0;"/><text fill="#000000" font-family="sans-serif" font-size="14" lengthAdjust="spacing" textLength="13" x="551" y="466.9659">id</text><ellipse cx="542" cy="482.1019" fill="none" rx="3" ry="3" style="stroke:#038048;stroke-width:1.0;"/><text fill="#000000" font-family="sans-serif" font-size="14" lengthAdjust="spacing" textLength="69" x="551" y="486.0339">einkauf_id</text><ellipse cx="542" cy="501.1698" fill="none" rx="3" ry="3" style="stroke:#038048;stroke-width:1.0;"/><text fill="#000000" font-family="sans-serif" font-size="14" lengthAdjust="spacing" textLength="72" x="551" y="505.1018">produkt_id</text><ellipse cx="542" cy="520.2377" fill="none" rx="3" ry="3" style="stroke:#038048;stroke-width:1.0;"/><text fill="#000000" font-family="sans-serif" font-size="14" lengthAdjust="spacing" textLength="106" x="551" y="524.1697">produkt_menge</text><ellipse cx="542" cy="539.3056" fill="none" rx="3" ry="3" style="stroke:#038048;stroke-width:1.0;"/><text fill="#000000" font-family="sans-serif" font-size="14" lengthAdjust="spacing" textLength="66" x="551" y="543.2376">einheit_id</text><ellipse cx="542" cy="558.3735" fill="none" rx="3" ry="3" style="stroke:#038048;stroke-width:1.0;"/><text fill="#000000" font-family="sans-serif" font-size="14" lengthAdjust="spacing" textLength="93" x="551" y="562.3055">produkt_preis</text><ellipse cx="542" cy="577.4415" fill="none" rx="3" ry="3" style="stroke:#038048;stroke-width:1.0;"/><text fill="#000000" font-family="sans-serif" font-size="14" lengthAdjust="spacing" textLength="121" x="551" y="581.3734">hinzugefuegt_von</text><ellipse cx="542" cy="596.5094" fill="none" rx="3" ry="3" style="stroke:#038048;stroke-width:1.0;"/><text fill="#000000" font-family="sans-serif" font-size="14" lengthAdjust="spacing" textLength="94" x="551" y="600.4414">beschreibung</text></g><!--class fav_Produkte--><g id="elem_fav_Produkte"><rect codeLine="67" fill="#F1F1F1" height="135.3396" id="fav_Produkte" rx="2.5" ry="2.5" style="stroke:#181818;stroke-width:0.5;" width="120" x="841" y="940"/><ellipse cx="856.9" cy="956" fill="#ADD1B2" rx="11" ry="11" style="stroke:#181818;stroke-width:1.0;"/><path d="M859.8688,961.6406 Q859.2906,961.9375 858.65,962.0781 Q858.0094,962.2344 857.3063,962.2344 Q854.8063,962.2344 853.4781,960.5938 Q852.1656,958.9375 852.1656,955.8125 Q852.1656,952.6875 853.4781,951.0313 Q854.8063,949.375 857.3063,949.375 Q858.0094,949.375 858.65,949.5313 Q859.3063,949.6875 859.8688,949.9844 L859.8688,952.7031 Q859.2438,952.125 858.65,951.8594 Q858.0563,951.5781 857.4313,951.5781 Q856.0875,951.5781 855.4,952.6563 Q854.7125,953.7188 854.7125,955.8125 Q854.7125,957.9063 855.4,958.9844 Q856.0875,960.0469 857.4313,960.0469 Q858.0563,960.0469 858.65,959.7813 Q859.2438,959.5 859.8688,958.9219 L859.8688,961.6406 Z " fill="#000000"/><text fill="#000000" font-family="sans-serif" font-size="14" lengthAdjust="spacing" textLength="86" x="871.1" y="961.432">fav_Produkte</text><line style="stroke:#181818;stroke-width:0.5;" x1="842" x2="960" y1="972" y2="972"/><ellipse cx="852" cy="987.034" fill="none" rx="3" ry="3" style="stroke:#038048;stroke-width:1.0;"/><text fill="#000000" font-family="sans-serif" font-size="14" lengthAdjust="spacing" textLength="63" x="861" y="990.9659">nutzer_id</text><ellipse cx="852" cy="1006.1019" fill="none" rx="3" ry="3" style="stroke:#038048;stroke-width:1.0;"/><text fill="#000000" font-family="sans-serif" font-size="14" lengthAdjust="spacing" textLength="72" x="861" y="1010.0339">produkt_id</text><ellipse cx="852" cy="1025.1698" fill="none" rx="3" ry="3" style="stroke:#038048;stroke-width:1.0;"/><text fill="#000000" font-family="sans-serif" font-size="14" lengthAdjust="spacing" textLength="47" x="861" y="1029.1018">menge</text><ellipse cx="852" cy="1044.2377" fill="none" rx="3" ry="3" style="stroke:#038048;stroke-width:1.0;"/><text fill="#000000" font-family="sans-serif" font-size="14" lengthAdjust="spacing" textLength="66" x="861" y="1048.1697">einheit_id</text><ellipse cx="852" cy="1063.3056" fill="none" rx="3" ry="3" style="stroke:#038048;stroke-width:1.0;"/><text fill="#000000" font-family="sans-serif" font-size="14" lengthAdjust="spacing" textLength="94" x="861" y="1067.2376">beschreibung</text></g><!--class Bedarfsvorhersage--><g id="elem_Bedarfsvorhersage"><rect codeLine="75" fill="#F1F1F1" height="116.2717" id="Bedarfsvorhersage" rx="2.5" ry="2.5" style="stroke:#181818;stroke-width:0.5;" width="160" x="646" y="949.5"/><ellipse cx="661" cy="965.5" fill="#ADD1B2" rx="11" ry="11" style="stroke:#181818;stroke-width:1.0;"/><path d="M663.9688,971.1406 Q663.3906,971.4375 662.75,971.5781 Q662.1094,971.7344 661.4063,971.7344 Q658.9063,971.7344 657.5781,970.0938 Q656.2656,968.4375 656.2656,965.3125 Q656.2656,962.1875 657.5781,960.5313 Q658.9063,958.875 661.4063,958.875 Q662.1094,958.875 662.75,959.0313 Q663.4063,959.1875 663.9688,959.4844 L663.9688,962.2031 Q663.3438,961.625 662.75,961.3594 Q662.1563,961.0781 661.5313,961.0781 Q660.1875,961.0781 659.5,962.1563 Q658.8125,963.2188 658.8125,965.3125 Q658.8125,967.4063 659.5,968.4844 Q660.1875,969.5469 661.5313,969.5469 Q662.1563,969.5469 662.75,969.2813 Q663.3438,969 663.9688,968.4219 L663.9688,971.1406 Z " fill="#000000"/><text fill="#000000" font-family="sans-serif" font-size="14" lengthAdjust="spacing" textLength="128" x="675" y="970.932">Bedarfsvorhersage</text><line style="stroke:#181818;stroke-width:0.5;" x1="647" x2="805" y1="981.5" y2="981.5"/><ellipse cx="657" cy="996.534" fill="none" rx="3" ry="3" style="stroke:#038048;stroke-width:1.0;"/><text fill="#000000" font-family="sans-serif" font-size="14" lengthAdjust="spacing" textLength="63" x="666" y="1000.4659">nutzer_id</text><ellipse cx="657" cy="1015.6019" fill="none" rx="3" ry="3" style="stroke:#038048;stroke-width:1.0;"/><text fill="#000000" font-family="sans-serif" font-size="14" lengthAdjust="spacing" textLength="72" x="666" y="1019.5339">produkt_id</text><ellipse cx="657" cy="1034.6698" fill="none" rx="3" ry="3" style="stroke:#038048;stroke-width:1.0;"/><text fill="#000000" font-family="sans-serif" font-size="14" lengthAdjust="spacing" textLength="52" x="666" y="1038.6018">counter</text><ellipse cx="657" cy="1053.7377" fill="none" rx="3" ry="3" style="stroke:#038048;stroke-width:1.0;"/><text fill="#000000" font-family="sans-serif" font-size="14" lengthAdjust="spacing" textLength="79" x="666" y="1057.6697">last_bought</text></g><!--class Kostenaufteilung--><g id="elem_Kostenaufteilung"><rect codeLine="82" fill="#F1F1F1" height="97.2038" id="Kostenaufteilung" rx="2.5" ry="2.5" style="stroke:#181818;stroke-width:0.5;" width="148" x="173" y="464"/><ellipse cx="188" cy="480" fill="#ADD1B2" rx="11" ry="11" style="stroke:#181818;stroke-width:1.0;"/><path d="M190.9688,485.6406 Q190.3906,485.9375 189.75,486.0781 Q189.1094,486.2344 188.4063,486.2344 Q185.9063,486.2344 184.5781,484.5938 Q183.2656,482.9375 183.2656,479.8125 Q183.2656,476.6875 184.5781,475.0313 Q185.9063,473.375 188.4063,473.375 Q189.1094,473.375 189.75,473.5313 Q190.4063,473.6875 190.9688,473.9844 L190.9688,476.7031 Q190.3438,476.125 189.75,475.8594 Q189.1563,475.5781 188.5313,475.5781 Q187.1875,475.5781 186.5,476.6563 Q185.8125,477.7188 185.8125,479.8125 Q185.8125,481.9063 186.5,482.9844 Q187.1875,484.0469 188.5313,484.0469 Q189.1563,484.0469 189.75,483.7813 Q190.3438,483.5 190.9688,482.9219 L190.9688,485.6406 Z " fill="#000000"/><text fill="#000000" font-family="sans-serif" font-size="14" lengthAdjust="spacing" textLength="116" x="202" y="485.432">Kostenaufteilung</text><line style="stroke:#181818;stroke-width:0.5;" x1="174" x2="320" y1="496" y2="496"/><ellipse cx="184" cy="511.034" fill="none" rx="3" ry="3" style="stroke:#038048;stroke-width:1.0;"/><text fill="#000000" font-family="sans-serif" font-size="14" lengthAdjust="spacing" textLength="102" x="193" y="514.9659">empfaenger_id</text><ellipse cx="184" cy="530.1019" fill="none" rx="3" ry="3" style="stroke:#038048;stroke-width:1.0;"/><text fill="#000000" font-family="sans-serif" font-size="14" lengthAdjust="spacing" textLength="87" x="193" y="534.0339">schuldner_id</text><ellipse cx="184" cy="549.1698" fill="none" rx="3" ry="3" style="stroke:#038048;stroke-width:1.0;"/><text fill="#000000" font-family="sans-serif" font-size="14" lengthAdjust="spacing" textLength="45" x="193" y="553.1018">betrag</text></g><!--link Listen to Nutzer--><g id="link_Listen_Nutzer"><path codeLine="91" d="M230.9,123.03 C192.17,221.9 123.44,431.58 155,609 C159.06,631.84 157.64,640.61 173,658 C215.86,706.54 278.3693,735.571 328.2593,753.101 " fill="none" id="Listen-to-Nutzer" style="stroke:#181818;stroke-width:1.0;"/><polygon fill="#181818" points="333.92,755.09,326.7549,748.3326,329.2027,753.4325,324.1029,755.8803,333.92,755.09" style="stroke:#181818;stroke-width:1.0;"/><text fill="#000000" font-family="sans-serif" font-size="13" lengthAdjust="spacing" textLength="48" x="162" y="381.897">ersteller</text><text fill="#000000" font-family="sans-serif" font-size="13" lengthAdjust="spacing" textLength="20" x="206.7441" y="145.0618">0..*</text><text fill="#000000" font-family="sans-serif" font-size="13" lengthAdjust="spacing" textLength="20" x="305.9269" y="748.947">0..1</text></g><!--reverse link Listen to ListeMitglieder--><g id="link_Listen_ListeMitglieder"><path codeLine="94" d="M208.1992,80.2611 C137.4792,104.3011 6,162.63 6,268.5 C6,268.5 6,268.5 6,775.5 C6,841.4 33.66,913.06 55.15,958.81 " fill="none" id="Listen-backto-ListeMitglieder" style="stroke:#181818;stroke-width:1.0;"/><polygon fill="#181818" points="213.88,78.33,204.0715,77.4394,209.146,79.9392,206.6462,85.0138,213.88,78.33" style="stroke:#181818;stroke-width:1.0;"/><text fill="#000000" font-family="sans-serif" font-size="13" lengthAdjust="spacing" textLength="49" x="7" y="517.897">listen_id</text><text fill="#000000" font-family="sans-serif" font-size="13" lengthAdjust="spacing" textLength="7" x="198.9321" y="76.126">1</text><text fill="#000000" font-family="sans-serif" font-size="13" lengthAdjust="spacing" textLength="20" x="30.0314" y="947.3441">0..*</text></g><!--reverse link Nutzer to ListeMitglieder--><g id="link_Nutzer_ListeMitglieder"><path codeLine="95" d="M329.1412,824.944 C274.5212,864.754 200.63,918.59 145.34,958.89 " fill="none" id="Nutzer-backto-ListeMitglieder" style="stroke:#181818;stroke-width:1.0;"/><polygon fill="#181818" points="333.99,821.41,324.3608,823.4786,329.9494,824.355,329.0729,829.9436,333.99,821.41" style="stroke:#181818;stroke-width:1.0;"/><text fill="#000000" font-family="sans-serif" font-size="13" lengthAdjust="spacing" textLength="56" x="239" y="905.897">nutzer_id</text><text fill="#000000" font-family="sans-serif" font-size="13" lengthAdjust="spacing" textLength="7" x="318.8841" y="823.0023">1</text><text fill="#000000" font-family="sans-serif" font-size="13" lengthAdjust="spacing" textLength="20" x="133.8139" y="947.0805">0..*</text></g><!--reverse link Listen to ListeProdukte--><g id="link_Listen_ListeProdukte"><path codeLine="98" d="M301.5896,90.859 C348.3896,116.339 421.06,157.67 484,202 C595.28,280.38 715,383.04 788.23,448.15 " fill="none" id="Listen-backto-ListeProdukte" style="stroke:#181818;stroke-width:1.0;"/><polygon fill="#181818" points="296.32,87.99,302.3117,95.8066,300.7113,90.3808,306.1371,88.7804,296.32,87.99" style="stroke:#181818;stroke-width:1.0;"/><text fill="#000000" font-family="sans-serif" font-size="13" lengthAdjust="spacing" textLength="49" x="654" y="274.897">listen_id</text><text fill="#000000" font-family="sans-serif" font-size="13" lengthAdjust="spacing" textLength="7" x="304.0234" y="87.4148">1</text><text fill="#000000" font-family="sans-serif" font-size="13" lengthAdjust="spacing" textLength="20" x="760.3776" y="437.8905">0..*</text></g><!--link ListeProdukte to Produkt--><g id="link_ListeProdukte_Produkt"><path codeLine="99" d="M868.22,589.83 C869.29,612.01 868.61,636.13 864,658 C858.3,685.02 848.5891,708.0866 837.4191,729.9566 " fill="none" id="ListeProdukte-to-Produkt" style="stroke:#181818;stroke-width:1.0;"/><polygon fill="#181818" points="834.69,735.3,842.3459,729.1043,836.9643,730.8472,835.2214,725.4655,834.69,735.3" style="stroke:#181818;stroke-width:1.0;"/><text fill="#000000" font-family="sans-serif" font-size="13" lengthAdjust="spacing" textLength="66" x="867" y="653.897">produkt_id</text><text fill="#000000" font-family="sans-serif" font-size="13" lengthAdjust="spacing" textLength="20" x="848.241" y="611.9219">0..*</text><text fill="#000000" font-family="sans-serif" font-size="13" lengthAdjust="spacing" textLength="7" x="830.9301" y="723.7512">1</text></g><!--link ListeProdukte to Einheiten--><g id="link_ListeProdukte_Einheiten"><path codeLine="100" d="M917.1,589.76 C926.81,605.36 935.74,622.17 942,639 C988.99,765.33 970.76,805.47 979,940 C984.01,1021.75 1005.41,1050.64 969,1124 C963.83,1134.42 960.6518,1139.8677 953.1918,1149.1777 " fill="none" id="ListeProdukte-to-Einheiten" style="stroke:#181818;stroke-width:1.0;"/><polygon fill="#181818" points="949.44,1153.86,958.1893,1149.3378,952.5665,1149.9581,951.9463,1144.3354,949.44,1153.86" style="stroke:#181818;stroke-width:1.0;"/><text fill="#000000" font-family="sans-serif" font-size="13" lengthAdjust="spacing" textLength="58" x="978" y="905.897">einheit_id</text><text fill="#000000" font-family="sans-serif" font-size="13" lengthAdjust="spacing" textLength="20" x="901.7798" y="611.8452">0..*</text><text fill="#000000" font-family="sans-serif" font-size="13" lengthAdjust="spacing" textLength="20" x="935.3261" y="1142.0459">0..1</text></g><!--link ListeProdukte to Nutzer--><g id="link_ListeProdukte_Nutzer"><path codeLine="101" d="M797.77,589.53 C775.42,613.97 748.51,639.49 720,658 C637.96,711.27 534.0629,742.324 465.9429,758.744 " fill="none" id="ListeProdukte-to-Nutzer" style="stroke:#181818;stroke-width:1.0;"/><polygon fill="#181818" points="460.11,760.15,469.7967,761.9296,464.9708,758.9783,467.9221,754.1524,460.11,760.15" style="stroke:#181818;stroke-width:1.0;"/><text fill="#000000" font-family="sans-serif" font-size="13" lengthAdjust="spacing" textLength="102" x="742" y="653.897">hinzugef&#252;gt_von</text><text fill="#000000" font-family="sans-serif" font-size="13" lengthAdjust="spacing" textLength="20" x="770.8567" y="611.8611">0..*</text><text fill="#000000" font-family="sans-serif" font-size="13" lengthAdjust="spacing" textLength="7" x="467.8118" y="754.4183">1</text></g><!--reverse link Listen to Einkaufsarchiv--><g id="link_Listen_Einkaufsarchiv"><path codeLine="104" d="M299.5693,127.8167 C317.2793,152.3767 334.61,176.41 353.03,201.96 " fill="none" id="Listen-backto-Einkaufsarchiv" style="stroke:#181818;stroke-width:1.0;"/><polygon fill="#181818" points="296.06,122.95,298.0795,132.5896,298.9844,127.0056,304.5684,127.9105,296.06,122.95" style="stroke:#181818;stroke-width:1.0;"/><text fill="#000000" font-family="sans-serif" font-size="13" lengthAdjust="spacing" textLength="49" x="329" y="167.897">listen_id</text><text fill="#000000" font-family="sans-serif" font-size="13" lengthAdjust="spacing" textLength="7" x="293.6376" y="144.9721">1</text><text fill="#000000" font-family="sans-serif" font-size="13" lengthAdjust="spacing" textLength="20" x="326.3272" y="190.0861">0..*</text></g><!--link Einkaufsarchiv to Nutzer--><g id="link_Einkaufsarchiv_Nutzer"><path codeLine="105" d="M400.47,337.03 C399.75,427.28 398.5178,582.5902 397.7278,681.8002 " fill="none" id="Einkaufsarchiv-to-Nutzer" style="stroke:#181818;stroke-width:1.0;"/><polygon fill="#181818" points="397.68,687.8,401.7515,678.8321,397.7198,682.8002,393.7518,678.7684,397.68,687.8" style="stroke:#181818;stroke-width:1.0;"/><text fill="#000000" font-family="sans-serif" font-size="13" lengthAdjust="spacing" textLength="93" x="400" y="517.897">eingekauft_von</text><text fill="#000000" font-family="sans-serif" font-size="13" lengthAdjust="spacing" textLength="20" x="379.3183" y="359.2628">0..*</text><text fill="#000000" font-family="sans-serif" font-size="13" lengthAdjust="spacing" textLength="20" x="376.8499" y="676.2285">0..1</text></g><!--reverse link Einkaufsarchiv to eingekaufte_Produkte--><g id="link_Einkaufsarchiv_eingekaufte_Produkte"><path codeLine="106" d="M465.7454,341.7502 C487.7754,365.9902 509.08,389.43 532.93,415.68 " fill="none" id="Einkaufsarchiv-backto-eingekaufte_Produkte" style="stroke:#181818;stroke-width:1.0;"/><polygon fill="#181818" points="461.71,337.31,464.803,346.6606,465.0728,341.0102,470.7232,341.2801,461.71,337.31" style="stroke:#181818;stroke-width:1.0;"/><text fill="#000000" font-family="sans-serif" font-size="13" lengthAdjust="spacing" textLength="61" x="504" y="381.897">einkauf_id</text><text fill="#000000" font-family="sans-serif" font-size="13" lengthAdjust="spacing" textLength="7" x="460.6098" y="359.0954">1</text><text fill="#000000" font-family="sans-serif" font-size="13" lengthAdjust="spacing" textLength="20" x="505.1947" y="404.2307">0..*</text></g><!--link eingekaufte_Produkte to Produkt--><g id="link_eingekaufte_Produkte_Produkt"><path codeLine="107" d="M627.82,609.25 C632.13,626.4 638.54,643.42 648,658 C677.7,703.75 727.0794,734.0053 765.3394,752.7053 " fill="none" id="eingekaufte_Produkte-to-Produkt" style="stroke:#181818;stroke-width:1.0;"/><polygon fill="#181818" points="770.73,755.34,764.4006,747.7942,766.2379,753.1444,760.8877,754.9817,770.73,755.34" style="stroke:#181818;stroke-width:1.0;"/><text fill="#000000" font-family="sans-serif" font-size="13" lengthAdjust="spacing" textLength="66" x="649" y="653.897">produkt_id</text><text fill="#000000" font-family="sans-serif" font-size="13" lengthAdjust="spacing" textLength="20" x="607.6667" y="630.5883">0..*</text><text fill="#000000" font-family="sans-serif" font-size="13" lengthAdjust="spacing" textLength="7" x="755.8633" y="747.532">1</text></g><!--link eingekaufte_Produkte to Einheiten--><g id="link_eingekaufte_Produkte_Einheiten"><path codeLine="108" d="M592.9,609.24 C565.1,728.63 537.56,934.14 629,1075 C678.62,1151.45 781.6128,1181.384 845.5428,1193.374 " fill="none" id="eingekaufte_Produkte-to-Einheiten" style="stroke:#181818;stroke-width:1.0;"/><polygon fill="#181818" points="851.44,1194.48,843.3316,1188.8895,846.5257,1193.5583,841.8569,1196.7524,851.44,1194.48" style="stroke:#181818;stroke-width:1.0;"/><text fill="#000000" font-family="sans-serif" font-size="13" lengthAdjust="spacing" textLength="58" x="572" y="905.897">einheit_id</text><text fill="#000000" font-family="sans-serif" font-size="13" lengthAdjust="spacing" textLength="20" x="570.2914" y="630.5776">0..*</text><text fill="#000000" font-family="sans-serif" font-size="13" lengthAdjust="spacing" textLength="20" x="823.4366" y="1189.1909">0..1</text></g><!--link eingekaufte_Produkte to Nutzer--><g id="link_eingekaufte_Produkte_Nutzer"><path codeLine="109" d="M530.99,588.72 C521.99,595.73 512.89,602.6 504,609 C483.58,623.69 472.45,619.97 456,639 C443.66,653.28 436.0923,665.1146 427.9123,682.4346 " fill="none" id="eingekaufte_Produkte-to-Nutzer" style="stroke:#181818;stroke-width:1.0;"/><polygon fill="#181818" points="425.35,687.86,432.8104,681.4302,427.4853,683.3389,425.5766,678.0137,425.35,687.86" style="stroke:#181818;stroke-width:1.0;"/><text fill="#000000" font-family="sans-serif" font-size="13" lengthAdjust="spacing" textLength="109" x="457" y="653.897">hinzugefuegt_von</text><text fill="#000000" font-family="sans-serif" font-size="13" lengthAdjust="spacing" textLength="20" x="503.1001" y="591.0598">0..*</text><text fill="#000000" font-family="sans-serif" font-size="13" lengthAdjust="spacing" textLength="20" x="406.9843" y="676.2939">0..1</text></g><!--reverse link Nutzer to fav_Produkte--><g id="link_Nutzer_fav_Produkte"><path codeLine="112" d="M444.3758,866.072 C458.1658,885.142 471.69,898.29 492,910 C620.35,984 687.61,882.14 824,940 C829.69,942.41 835.27,945.41 840.65,948.79 " fill="none" id="Nutzer-backto-fav_Produkte" style="stroke:#181818;stroke-width:1.0;"/><polygon fill="#181818" points="440.86,861.21,442.8924,870.8469,443.7899,865.2617,449.3751,866.1591,440.86,861.21" style="stroke:#181818;stroke-width:1.0;"/><text fill="#000000" font-family="sans-serif" font-size="13" lengthAdjust="spacing" textLength="56" x="493" y="905.897">nutzer_id</text><text fill="#000000" font-family="sans-serif" font-size="13" lengthAdjust="spacing" textLength="7" x="437.3284" y="883.299">1</text><text fill="#000000" font-family="sans-serif" font-size="13" lengthAdjust="spacing" textLength="20" x="813.7129" y="937.7753">0..*</text></g><!--reverse link Produkt to fav_Produkte--><g id="link_Produkt_fav_Produkte"><path codeLine="113" d="M829.6665,819.2467 C842.7065,853.4667 859.99,898.84 875.59,939.79 " fill="none" id="Produkt-backto-fav_Produkte" style="stroke:#181818;stroke-width:1.0;"/><polygon fill="#181818" points="827.53,813.64,826.997,823.4744,829.3104,818.3123,834.4726,820.6257,827.53,813.64" style="stroke:#181818;stroke-width:1.0;"/><text fill="#000000" font-family="sans-serif" font-size="13" lengthAdjust="spacing" textLength="66" x="863" y="905.897">produkt_id</text><text fill="#000000" font-family="sans-serif" font-size="13" lengthAdjust="spacing" textLength="7" x="822.3568" y="835.4746">1</text><text fill="#000000" font-family="sans-serif" font-size="13" lengthAdjust="spacing" textLength="20" x="851.717" y="928.3716">0..*</text></g><!--link fav_Produkte to Einheiten--><g id="link_fav_Produkte_Einheiten"><path codeLine="114" d="M901,1075.19 C901,1101.12 901,1124.24 901,1147.97 " fill="none" id="fav_Produkte-to-Einheiten" style="stroke:#181818;stroke-width:1.0;"/><polygon fill="#181818" points="901,1153.97,905,1144.97,901,1148.97,897,1144.97,901,1153.97" style="stroke:#181818;stroke-width:1.0;"/><text fill="#000000" font-family="sans-serif" font-size="13" lengthAdjust="spacing" textLength="58" x="902" y="1119.897">einheit_id</text><text fill="#000000" font-family="sans-serif" font-size="13" lengthAdjust="spacing" textLength="20" x="879.9063" y="1097.4403">0..*</text><text fill="#000000" font-family="sans-serif" font-size="13" lengthAdjust="spacing" textLength="20" x="879.4688" y="1142.1727">0..1</text></g><!--reverse link Nutzer to Bedarfsvorhersage--><g id="link_Nutzer_Bedarfsvorhersage"><path codeLine="117" d="M379.0347,867.1172 C379.5747,884.6472 383.48,895.99 394,910 C424.23,950.26 557.39,979.19 645.62,994.36 " fill="none" id="Nutzer-backto-Bedarfsvorhersage" style="stroke:#181818;stroke-width:1.0;"/><polygon fill="#181818" points="378.85,861.12,375.129,870.2389,379.0039,866.1176,383.1252,869.9926,378.85,861.12" style="stroke:#181818;stroke-width:1.0;"/><text fill="#000000" font-family="sans-serif" font-size="13" lengthAdjust="spacing" textLength="56" x="395" y="905.897">nutzer_id</text><text fill="#000000" font-family="sans-serif" font-size="13" lengthAdjust="spacing" textLength="7" x="369.9218" y="883.4989">1</text><text fill="#000000" font-family="sans-serif" font-size="13" lengthAdjust="spacing" textLength="20" x="618.1354" y="989.4829">0..*</text></g><!--reverse link Produkt to Bedarfsvorhersage--><g id="link_Produkt_Bedarfsvorhersage"><path codeLine="118" d="M796.5154,819.255 C782.6154,856.165 763.49,906.96 747.56,949.25 " fill="none" id="Produkt-backto-Bedarfsvorhersage" style="stroke:#181818;stroke-width:1.0;"/><polygon fill="#181818" points="798.63,813.64,791.7148,820.6528,796.8679,818.3192,799.2015,823.4723,798.63,813.64" style="stroke:#181818;stroke-width:1.0;"/><text fill="#000000" font-family="sans-serif" font-size="13" lengthAdjust="spacing" textLength="66" x="770" y="905.897">produkt_id</text><text fill="#000000" font-family="sans-serif" font-size="13" lengthAdjust="spacing" textLength="7" x="788.6703" y="835.4746">1</text><text fill="#000000" font-family="sans-serif" font-size="13" lengthAdjust="spacing" textLength="20" x="729.0411" y="937.6225">0..*</text></g><!--link Kostenaufteilung to Nutzer--><g id="link_Kostenaufteilung_Nutzer"><path codeLine="121" d="M252.34,561.09 C257.18,590.47 266.23,628.13 283,658 C296.1,681.34 310.8852,699.0702 329.6952,717.4202 " fill="none" id="Kostenaufteilung-to-Nutzer" style="stroke:#181818;stroke-width:1.0;"/><polygon fill="#181818" points="333.99,721.61,330.341,712.4621,330.411,718.1185,324.7546,718.1885,333.99,721.61" style="stroke:#181818;stroke-width:1.0;"/><text fill="#000000" font-family="sans-serif" font-size="13" lengthAdjust="spacing" textLength="90" x="284" y="653.897">empfaenger_id</text><text fill="#000000" font-family="sans-serif" font-size="13" lengthAdjust="spacing" textLength="20" x="231.6847" y="583.0506">0..*</text><text fill="#000000" font-family="sans-serif" font-size="13" lengthAdjust="spacing" textLength="7" x="318.8841" y="711.0392">1</text></g><!--link Kostenaufteilung to Nutzer--><g id="link_Kostenaufteilung_Nutzer"><path codeLine="122" d="M205.86,561.01 C185.96,590.02 169.9,627.31 188,658 C219.28,711.02 278.898,739.5325 328.238,755.6925 " fill="none" id="Kostenaufteilung-to-Nutzer-1" style="stroke:#181818;stroke-width:1.0;"/><polygon fill="#181818" points="333.94,757.56,326.6321,750.9574,329.1884,756.0037,324.142,758.56,333.94,757.56" style="stroke:#181818;stroke-width:1.0;"/><text fill="#000000" font-family="sans-serif" font-size="13" lengthAdjust="spacing" textLength="76" x="189" y="653.897">schuldner_id</text><text fill="#000000" font-family="sans-serif" font-size="13" lengthAdjust="spacing" textLength="20" x="178.6684" y="582.9594">0..*</text><text fill="#000000" font-family="sans-serif" font-size="13" lengthAdjust="spacing" textLength="7" x="318.828" y="770.4424">1</text></g><!--SRC=[bLOzRzim4DtrAuWiTHeeQ3iQTOOWQO6c3JfqDoZfB1AcA8CYNSH5_rcs_B4UHL4Y9Sjs5vlcyTvxzmapNW2fGBEwQ9Ba7LcjLkIhChBO2jeq8Er5ajipUJRw08hyIGYvuONzX8foOG-ILc2_T_ZkTwtqcj66sGlDm5doMjJA7XuWfoyFzAL9_YOTy7VUQ6GAW3qUABG80QrdGRMfHbu_k2u5XyBh4YtKkaDf1NS_Ck0bQ0NMJ0EOdwekp5PFsFi7Zrmou3C2QRPzUrK78ykHi0uMZiZQETFeLmMoT34xlixCk3oO4ZPlhwLUxslfGcbofe1d4Itgt5ApQQZA6TyxNd1t7LQa0aqbM6CF6znWWl2YX8PMUeTCGR66Lx2EW-nn0yh_YjMR7MCGl87vu5tBFeC1yejcjbd2djtG_KXbr1Inl1bPnzDz3mLLcsPVAuPTIilpy7bjf7QjZ0XwdTMcP7f0VAfjUThCSe5SNGchtOPQOHuKnHXHoA2njQ91AkxXm86XVvS8l7O3bZxwQIABVh08ceWqGj1Cm7NIZUBLXzlRzrSaJU_QuyShF_nBCema0llnGqrqOnqNtsekqwuG0nm2V4vJ3pkUt2KPEhFZEUinv7c8pnVw56tV325fR0c3HmI_89OaAEUyXqlNi3IM9EYcaqHzYYSpZo6Eflk6-24aPw8UEOPXZqodYXulYx5Zp7XqGxGOVZ4SVN59siywdip-XTwJElJh1-lmXUB4M-YPJeqMJjYcFfxJxuDO8yl5CQB4oMQQaJhTO1VeFUOKY4RwoHfRV8fsqi4eqe38yFZK_iVe4dwTJ3pd1YJUYHUxHPlp7m00]--></g></svg>